<svg width="119" height="119" viewBox="0 0 119 119" fill="none" xmlns="http://www.w3.org/2000/svg">
<mask id="mask0_115_32940" style="mask-type:luminance" maskUnits="userSpaceOnUse" x="10" y="17" width="77" height="90">
<path d="M10.5728 17.0571H86.4569V106.109H10.5728V17.0571Z" fill="white"/>
</mask>
<g mask="url(#mask0_115_32940)">
<path fill-rule="evenodd" clip-rule="evenodd" d="M82.0669 17.282C84.4664 17.282 86.423 19.2374 86.423 21.6358V101.753C86.423 104.151 84.4664 106.108 82.0669 106.108H14.9817C12.5834 106.108 10.6256 104.151 10.6256 101.753V21.6358C10.6256 19.2374 12.5834 17.282 14.9817 17.282H82.0669Z" fill="#837683"/>
</g>
<mask id="mask1_115_32940" style="mask-type:luminance" maskUnits="userSpaceOnUse" x="76" y="17" width="11" height="90">
<path d="M76.2591 17.0571H86.457V106.109H76.2591V17.0571Z" fill="white"/>
</mask>
<g mask="url(#mask1_115_32940)">
<path fill-rule="evenodd" clip-rule="evenodd" d="M76.4442 106.108H82.0669C84.4664 106.108 86.423 104.151 86.423 101.753V21.6358C86.423 19.2374 84.4664 17.282 82.0669 17.282H76.4442V106.108Z" fill="#685E68"/>
</g>
<path fill-rule="evenodd" clip-rule="evenodd" d="M78.4043 23.3394H18.6454C17.5663 23.3394 16.6864 24.2181 16.6864 25.2971V98.0928C16.6864 99.1707 17.5663 100.051 18.6454 100.051H78.4043C79.4822 100.051 80.3621 99.1707 80.3621 98.0928V25.2971C80.3621 24.2181 79.4822 23.3394 78.4043 23.3394Z" fill="#ECEFF1"/>
<path fill-rule="evenodd" clip-rule="evenodd" d="M76.4442 100.051H78.4043C78.4653 100.051 78.5262 100.048 78.5871 100.042C79.5806 99.9498 80.3633 99.1098 80.3633 98.0928V25.2971C80.3633 24.2802 79.5806 23.4401 78.5871 23.3476C78.5262 23.3417 78.4653 23.3394 78.4043 23.3394H76.4442V100.051Z" fill="#D1D1D6"/>
<path fill-rule="evenodd" clip-rule="evenodd" d="M49.6397 80.967C48.6918 80.967 47.9232 80.1985 47.9232 79.2518C47.9232 78.3051 48.6918 77.5365 49.6397 77.5365H70.108C71.0559 77.5365 71.8244 78.3051 71.8244 79.2518C71.8244 80.1985 71.0559 80.967 70.108 80.967H49.6397ZM49.6397 39.7773C48.6918 39.7773 47.9232 39.0098 47.9232 38.062C47.9232 37.1153 48.6918 36.3479 49.6397 36.3479H70.108C71.0559 36.3479 71.8244 37.1153 71.8244 38.062C71.8244 39.0098 71.0559 39.7773 70.108 39.7773H49.6397ZM49.6397 48.4848C48.6918 48.4848 47.9232 47.7174 47.9232 46.7695C47.9232 45.8229 48.6918 45.0543 49.6397 45.0543H70.108C71.0559 45.0543 71.8244 45.8229 71.8244 46.7695C71.8244 47.7174 71.0559 48.4848 70.108 48.4848H49.6397ZM49.6397 60.3722C48.6918 60.3722 47.9232 59.6047 47.9232 58.6569C47.9232 57.7102 48.6918 56.9416 49.6397 56.9416H70.108C71.0559 56.9416 71.8244 57.7102 71.8244 58.6569C71.8244 59.6047 71.0559 60.3722 70.108 60.3722H49.6397ZM49.6397 69.0797C48.6918 69.0797 47.9232 68.3111 47.9232 67.3644C47.9232 66.4178 48.6918 65.6492 49.6397 65.6492H70.108C71.0559 65.6492 71.8244 66.4178 71.8244 67.3644C71.8244 68.3111 71.0559 69.0797 70.108 69.0797H49.6397ZM49.6397 89.6746C48.6918 89.6746 47.9232 88.906 47.9232 87.9593C47.9232 87.0115 48.6918 86.2441 49.6397 86.2441H70.108C71.0559 86.2441 71.8244 87.0115 71.8244 87.9593C71.8244 88.906 71.0559 89.6746 70.108 89.6746H49.6397Z" fill="#A79BA7"/>
<path fill-rule="evenodd" clip-rule="evenodd" d="M29.3646 77.5107H36.7107C38.044 77.5107 39.1348 78.6015 39.1348 79.9337V87.2763C39.1348 88.6096 38.044 89.6992 36.7107 89.6992H29.3646C28.0313 89.6992 26.9405 88.6096 26.9405 87.2763V79.9337C26.9405 78.6015 28.0313 77.5107 29.3646 77.5107Z" fill="#FE646F"/>
<path fill-rule="evenodd" clip-rule="evenodd" d="M34.5655 77.5107H36.7107C38.044 77.5107 39.1348 78.6015 39.1348 79.9337V87.2763C39.1348 88.6096 38.044 89.6992 36.7107 89.6992H34.5655C35.8988 89.6992 36.9896 88.6096 36.9896 87.2763V79.9337C36.9896 78.6015 35.8988 77.5107 34.5655 77.5107Z" fill="#FD4755"/>
<path fill-rule="evenodd" clip-rule="evenodd" d="M29.3646 56.9171H36.7107C38.044 56.9171 39.1348 58.0067 39.1348 59.34V66.6826C39.1348 68.0148 38.044 69.1056 36.7107 69.1056H29.3646C28.0313 69.1056 26.9405 68.0148 26.9405 66.6826V59.34C26.9405 58.0067 28.0313 56.9171 29.3646 56.9171Z" fill="#FFE177"/>
<path fill-rule="evenodd" clip-rule="evenodd" d="M34.5655 56.9171H36.7107C38.044 56.9171 39.1348 58.0067 39.1348 59.34V66.6826C39.1348 68.0148 38.044 69.1056 36.7107 69.1056H34.5655C35.8988 69.1056 36.9896 68.0148 36.9896 66.6826V59.34C36.9896 58.0067 35.8988 56.9171 34.5655 56.9171Z" fill="#FFD064"/>
<path fill-rule="evenodd" clip-rule="evenodd" d="M29.3646 36.3223H36.7107C38.044 36.3223 39.1348 37.4119 39.1348 38.7452V46.0878C39.1348 47.4199 38.044 48.5107 36.7107 48.5107H29.3646C28.0313 48.5107 26.9405 47.4199 26.9405 46.0878V38.7452C26.9405 37.4119 28.0313 36.3223 29.3646 36.3223Z" fill="#8AC9FE"/>
<path fill-rule="evenodd" clip-rule="evenodd" d="M34.5655 36.3223H36.7107C38.044 36.3223 39.1348 37.4119 39.1348 38.7452V46.0878C39.1348 47.4199 38.044 48.5107 36.7107 48.5107H34.5655C35.8988 48.5107 36.9896 47.4199 36.9896 46.0878V38.7452C36.9896 37.4119 35.8988 36.3223 34.5655 36.3223Z" fill="#60B7FF"/>
<mask id="mask2_115_32940" style="mask-type:luminance" maskUnits="userSpaceOnUse" x="31" y="8" width="35" height="19">
<path d="M31.5685 8.98804H65.4614V26.0552H31.5685V8.98804Z" fill="white"/>
</mask>
<g mask="url(#mask2_115_32940)">
<path fill-rule="evenodd" clip-rule="evenodd" d="M33.7124 14.6493H39.9209C40.7211 14.6493 41.4042 14.2005 41.7205 13.4659C42.8546 10.8333 45.4732 8.98914 48.5241 8.98914C51.5739 8.98914 54.1937 10.8333 55.3278 13.4659C55.6441 14.2005 56.3272 14.6493 57.1274 14.6493H63.3359C64.415 14.6493 65.2948 15.5292 65.2948 16.6082V24.0129C65.2948 25.0908 64.415 25.9707 63.3359 25.9707H33.7124C32.6333 25.9707 31.7534 25.0908 31.7534 24.0129V16.6082C31.7534 15.5292 32.6333 14.6493 33.7124 14.6493Z" fill="#E3A76F"/>
</g>
<path fill-rule="evenodd" clip-rule="evenodd" d="M61.377 24.0131H31.7535C31.7535 25.091 32.6334 25.9709 33.7113 25.9709H63.3359C64.415 25.9709 65.2949 25.091 65.2949 24.0131V16.6084C65.2949 15.5293 64.415 14.6494 63.3359 14.6494V22.0553C63.3359 22.545 63.1543 22.9949 62.8544 23.3394C62.4947 23.7518 61.9651 24.0131 61.377 24.0131Z" fill="#C48958"/>
<path d="M48.6344 12.8065C48.782 12.8135 48.9273 12.8358 49.0714 12.8721C49.2144 12.9072 49.3538 12.9576 49.4874 13.0209C49.6209 13.0841 49.7475 13.1591 49.8658 13.2482C49.9841 13.336 50.0931 13.4345 50.1927 13.5446C50.2923 13.6536 50.379 13.7719 50.4551 13.8996C50.5313 14.0261 50.5946 14.1597 50.6438 14.298C50.6941 14.4374 50.7293 14.5803 50.7515 14.7268C50.7726 14.8732 50.7797 15.0197 50.7726 15.1673C50.7644 15.3149 50.7433 15.4602 50.707 15.6043C50.6707 15.7473 50.6215 15.8855 50.5582 16.0202C50.495 16.1538 50.4188 16.2792 50.3309 16.3987C50.2431 16.517 50.1435 16.626 50.0345 16.7256C49.9244 16.824 49.806 16.9119 49.6795 16.988C49.5518 17.0642 49.4194 17.1263 49.28 17.1766C49.1406 17.2259 48.9976 17.261 48.8512 17.2833C48.7047 17.3044 48.5583 17.3114 48.4106 17.3044C48.263 17.2973 48.1166 17.2751 47.9736 17.2399C47.8295 17.2036 47.6913 17.1532 47.5577 17.0899C47.4241 17.0267 47.2976 16.9517 47.1793 16.8626C47.0597 16.7748 46.9508 16.6764 46.8524 16.5662C46.7528 16.4573 46.6649 16.3389 46.5888 16.2112C46.5138 16.0847 46.4505 15.9523 46.4013 15.8129C46.3509 15.6734 46.3158 15.5305 46.2935 15.3841C46.2724 15.2376 46.2654 15.0911 46.2724 14.9435C46.2794 14.7959 46.3017 14.6506 46.338 14.5065C46.3732 14.3636 46.4236 14.2253 46.4868 14.0917C46.5501 13.957 46.6262 13.8316 46.7141 13.7133C46.802 13.5938 46.9016 13.4848 47.0105 13.3864C47.1207 13.2868 47.239 13.199 47.3655 13.1228C47.4921 13.0478 47.6256 12.9846 47.7651 12.9342C47.9045 12.885 48.0474 12.8498 48.1939 12.8276C48.3403 12.8065 48.4868 12.7994 48.6344 12.8065Z" fill="#ECEFF1"/>
<path fill-rule="evenodd" clip-rule="evenodd" d="M62.469 94.5394C81.1835 94.5394 90.5401 94.5394 90.5401 94.5394C91.6637 88.2513 95.4574 85.8412 101.92 87.3069C106.232 88.0556 108.342 87.4522 108.252 85.4991C108.273 82.4681 108.793 81.3656 109.574 80.7809C111.305 79.4465 109.376 77.7312 107.395 76.6556C109.062 76.5232 111.203 75.1841 110.741 74.1109C110.003 71.5872 110.352 70.5714 111.491 69.9809C113.71 68.8971 114.162 67.5158 112.848 65.838C111.321 64.1825 110.112 62.4988 109.221 60.7883C108.4 59.2136 108.1 57.653 108.277 55.8873C108.359 55.0719 108.402 54.2447 108.402 53.4082C108.402 39.8454 97.4023 28.8508 83.8337 28.8508C70.2639 28.8508 59.2646 39.8454 59.2646 53.4082C59.2646 59.4585 61.4544 64.9979 65.0841 69.2767C66.2593 70.6628 66.9037 72.1613 67.1017 73.9668C67.7648 80.003 66.1468 87.0609 62.469 94.5394Z" fill="#FFDDCE"/>
<path fill-rule="evenodd" clip-rule="evenodd" d="M62.4689 94.5394H64.8087C68.4864 87.0609 70.1044 80.003 69.4413 73.9668C69.2433 72.1613 68.5989 70.6628 67.4237 69.2767C63.794 64.9979 61.6043 59.4585 61.6043 53.4082C61.6043 40.2379 71.9779 29.4894 85.0029 28.8789C84.6151 28.8602 84.2249 28.8508 83.8324 28.8508C70.2638 28.8508 59.2634 39.8454 59.2634 53.4082C59.2634 59.4585 61.4543 64.9979 65.0828 69.2767C66.258 70.6628 66.9035 72.1613 67.1015 73.9668C67.7647 80.003 66.1467 87.0609 62.4689 94.5394Z" fill="#F1CBBC"/>
<path fill-rule="evenodd" clip-rule="evenodd" d="M92.1545 60.8409V54.4837C93.0203 55.0097 94.1099 55.3237 95.2933 55.3237C98.1146 55.3237 100.402 53.5417 100.402 51.3425C100.402 49.1446 98.1146 47.3613 95.2933 47.3613C94.1099 47.3613 93.0203 47.6753 92.1545 48.2026V43.4973C92.1545 42.6713 91.4796 41.9965 90.6525 41.9965H73.303C72.4746 41.9965 71.7998 42.6713 71.7998 43.4973V60.8409C71.7998 61.6669 72.4746 62.3418 73.303 62.3418H78.0082C77.4822 61.476 77.1682 60.3875 77.1682 59.2053C77.1682 56.3841 78.9514 54.0994 81.1505 54.0994C83.3497 54.0994 85.1329 56.3852 85.1329 59.2053C85.1329 60.3875 84.8189 61.476 84.2929 62.3418H90.6525C91.4796 62.3418 92.1545 61.6681 92.1545 60.8409Z" fill="#6CF5C2"/>
<path fill-rule="evenodd" clip-rule="evenodd" d="M100.214 52.4146C100.336 52.0736 100.402 51.7139 100.402 51.3425C100.402 49.1446 98.1146 47.3625 95.2933 47.3625C94.1099 47.3625 93.0215 47.6765 92.1545 48.2026V50.3467C93.0215 49.8194 94.1099 49.5066 95.2933 49.5066C97.6377 49.5066 99.6131 50.7368 100.214 52.4146ZM92.1545 45.6426V43.4985C92.1545 42.6713 91.4796 41.9965 90.6525 41.9965H73.303C72.4746 41.9965 71.7998 42.6713 71.7998 43.4985V45.6426C71.7998 44.8154 72.4746 44.1405 73.303 44.1405H90.6525C91.4796 44.1405 92.1545 44.8154 92.1545 45.6426Z" fill="#00E499"/>
</svg>
